<?xml version="1.0" encoding="UTF-8"?>
<svg version="1.1" xmlns="http://www.w3.org/2000/svg" width="280" height="280">
<path d="M0 0 C0.83872597 -0.00453111 1.67745194 -0.00906223 2.54159385 -0.01373065 C5.33872452 -0.02634277 8.13565968 -0.02475633 10.93281555 -0.02310181 C12.94391122 -0.02908912 14.9550046 -0.03589514 16.96609497 -0.04345703 C22.42087 -0.06110546 27.87558225 -0.06581198 33.33038306 -0.0670886 C36.74185635 -0.06851164 40.15331376 -0.07278418 43.5647831 -0.07808304 C55.47653336 -0.09658089 67.3882389 -0.10475413 79.30000305 -0.10317993 C90.3863744 -0.10197924 101.47255083 -0.12306804 112.55887288 -0.15466726 C122.09034216 -0.18086212 131.62174792 -0.19154585 141.1532529 -0.19026911 C146.83998743 -0.18976034 152.52654877 -0.19539649 158.2132473 -0.21662521 C163.56576505 -0.2360611 168.91794539 -0.23609543 174.27047539 -0.22159195 C176.22792812 -0.21950926 178.18540226 -0.22417234 180.14281845 -0.23631287 C197.1818284 -0.33509528 209.64003006 2.1206697 222.4848175 14.21273804 C230.47647181 22.73947071 234.73176535 33.18045568 234.68583679 44.81141663 C234.6903679 45.65816084 234.69489902 46.50490506 234.69956744 47.37730819 C234.71220219 50.20751711 234.71059165 53.03753337 234.7089386 55.86776733 C234.71492451 57.90004218 234.72173021 59.93231476 234.72929382 61.96458435 C234.74695684 67.48133279 234.7516494 72.99801918 234.7529254 78.51479316 C234.75434764 81.96394288 234.75861869 85.41307686 234.76391983 88.86222267 C234.78242271 100.90249253 234.79059032 112.94271811 234.78901672 124.98300171 C234.78781599 136.19377133 234.80890433 147.40434822 234.84050405 158.61506909 C234.86668903 168.24926172 234.87738305 177.8833915 234.8761059 187.51761943 C234.87559683 193.26749338 234.88124978 199.01719612 234.90246201 204.76703453 C234.92188111 210.17863065 234.92194359 215.58989292 234.90742874 221.00150108 C234.90534396 222.98194875 234.91002173 224.96241751 234.92214966 226.94282913 C235.03188828 246.11203648 235.03188828 246.11203648 230.41841125 255.26742554 C229.64110657 256.85103882 229.64110657 256.85103882 228.84809875 258.46664429 C223.13238002 267.61466649 215.49293619 274.26141365 205.41841125 278.26742554 C204.56513056 278.60804551 203.71184986 278.94866549 202.83271217 279.29960728 C198.77516941 280.44975897 194.98418856 280.5543324 190.80522156 280.5415802 C189.9510158 280.54681688 189.09681005 280.55205356 188.21671927 280.55744892 C185.36121343 280.5724219 182.50588721 280.57315349 179.65034485 280.57382202 C177.59998778 280.58144546 175.54963357 280.58987327 173.49928284 280.5990448 C167.9328887 280.62098176 162.3665495 280.62978795 156.80011702 280.63487124 C153.31946761 280.63851654 149.83883256 280.6447576 146.35818863 280.65187263 C134.20654418 280.67636685 122.0549424 280.68941844 109.90327454 280.69296265 C98.59137642 280.69659521 87.27975007 280.72647084 75.96793497 280.76836723 C66.24540449 280.80310973 56.52296388 280.8185118 46.80037177 280.81920868 C40.9984422 280.8200003 35.19678938 280.82868619 29.39492416 280.85720634 C23.93320809 280.88345375 18.47199684 280.88555472 13.01024628 280.8695507 C11.01247427 280.86774139 9.0146728 280.87437988 7.01696396 280.89036942 C-3.84931194 280.97199669 -12.85214711 280.75633629 -22.58158875 275.26742554 C-23.84558974 274.56826098 -23.84558974 274.56826098 -25.13512611 273.85497189 C-35.27292101 267.96998291 -41.95334127 257.47678434 -45.12991011 246.34611171 C-45.87298778 242.92636776 -45.73329027 239.46156631 -45.73548889 235.97740173 C-45.73987115 235.1337775 -45.7442534 234.29015326 -45.74876845 233.42096466 C-45.76214091 230.5892651 -45.76833192 227.75759665 -45.77445984 224.9258728 C-45.78236224 222.89713908 -45.79063128 220.86840675 -45.79924011 218.8396759 C-45.82545159 212.17107483 -45.84077024 205.50246753 -45.85502625 198.83383179 C-45.86038692 196.53597446 -45.86576443 194.23811718 -45.8711586 191.94025993 C-45.89278902 182.37783254 -45.91152349 172.81540683 -45.92278099 163.25296116 C-45.93900454 149.56323584 -45.97214203 135.87379505 -46.02918184 122.18417698 C-46.06794319 112.5517011 -46.08742122 102.91930111 -46.09270155 93.2867493 C-46.09634744 87.53783919 -46.10828734 81.78923261 -46.14080429 76.04040718 C-46.17099253 70.62551577 -46.17715833 65.21110984 -46.16542053 59.79615211 C-46.16520068 57.81653275 -46.17343234 55.83689016 -46.19107437 53.8573494 C-46.33238809 37.07773722 -43.81950247 24.80394507 -31.70658875 12.33773804 C-22.79010652 3.96055917 -12.14730947 -0.04867353 0 0 Z " fill="#0054FF" transform="translate(45.58158874511719,-0.267425537109375)"/>
<path d="M0 0 C4.54477945 3.32349511 8.64855483 7.00068272 12.66015625 10.9453125 C13.36011719 11.63238281 14.06007812 12.31945312 14.78125 13.02734375 C24.74514742 23.49623402 33.64235793 39.35686988 34.66015625 53.9453125 C35.33820313 53.91050781 36.01625 53.87570313 36.71484375 53.83984375 C49.03927298 53.48137697 59.83720109 57.24474823 69.3671875 65.20703125 C80.33209519 75.67876469 86.3024814 87.7145217 86.97265625 102.8828125 C86.83414822 114.17891153 83.30536628 124.85272024 76.66015625 133.9453125 C76.19351563 134.61691406 75.726875 135.28851563 75.24609375 135.98046875 C57.26770686 159.16797799 20.78058167 165.91247685 -6.33984375 169.9453125 C-7.0781543 170.06245605 -7.81646484 170.17959961 -8.57714844 170.30029297 C-54.06952314 177.31917609 -110.62049997 172.34125606 -149.37109375 145.875 C-160.62094895 137.23429796 -168.80578796 126.14781122 -171.33984375 111.9453125 C-172.56684614 96.700228 -169.59502794 83.73310719 -160.4375 71.37890625 C-153.73696783 63.60529072 -144.10018863 56.48583278 -133.71484375 55.1328125 C-132.04421875 55.04 -132.04421875 55.04 -130.33984375 54.9453125 C-130.27667969 54.336875 -130.21351563 53.7284375 -130.1484375 53.1015625 C-127.42137309 33.58152253 -115.54968195 15.36556263 -100.1171875 3.41796875 C-70.55911867 -18.80878413 -31.05401497 -20.6431006 0 0 Z " fill="#FCFDFF" transform="translate(182.33984375,57.0546875)"/>
<path d="M0 0 C0.98136932 -0.00953201 1.96273865 -0.01906403 2.97384644 -0.02888489 C4.55517868 -0.02751778 4.55517868 -0.02751778 6.16845703 -0.02612305 C7.80332565 -0.03255074 7.80332565 -0.03255074 9.47122192 -0.03910828 C11.77605495 -0.04484938 14.08090609 -0.04535346 16.38574219 -0.04101562 C19.9060777 -0.0378599 23.42556941 -0.06130377 26.94580078 -0.08666992 C29.18668514 -0.0889434 31.42757175 -0.08964619 33.66845703 -0.08862305 C34.71863007 -0.09783279 35.7688031 -0.10704254 36.85079956 -0.11653137 C42.26877544 -0.08236276 46.51828964 -0.03287387 51.05126953 3.2746582 C55.99096549 8.50195858 55.62050251 13.7908158 55.54736328 20.5871582 C55.54881851 21.67424072 55.55027374 22.76132324 55.55177307 23.88134766 C55.55011688 26.17426236 55.53858707 28.46718849 55.51782227 30.76000977 C55.4888678 34.26277048 55.49722035 37.76401672 55.51025391 41.2668457 C55.50401603 43.49862387 55.49562471 45.73039727 55.48486328 47.9621582 C55.48779892 49.00605713 55.49073456 50.04995605 55.49375916 51.12548828 C55.4236826 56.54644833 55.24739544 60.67317894 52.05126953 65.2746582 C48.92736463 68.15142981 46.83507622 68.6574144 42.62768555 68.69458008 C41.54298477 68.71049194 40.458284 68.72640381 39.3407135 68.74279785 C38.17398605 68.74299927 37.00725861 68.74320068 35.80517578 68.7434082 C34.60191147 68.75102173 33.39864716 68.75863525 32.15892029 68.76647949 C29.61451289 68.77728399 27.07006113 68.78013221 24.52563477 68.77563477 C20.63173501 68.77466269 16.73980651 68.81628013 12.84619141 68.8605957 C10.37419031 68.86580276 7.90218236 68.8684909 5.43017578 68.8684082 C4.26547256 68.88480347 3.10076935 68.90119873 1.90077209 68.91809082 C-7.08943718 68.84118918 -7.08943718 68.84118918 -10.15991211 65.86254883 C-12.64628721 62.26550009 -13.08038231 60.4992916 -13.12573242 56.16992188 C-13.13856766 55.10509079 -13.15140289 54.0402597 -13.16462708 52.94316101 C-13.17201401 51.78798477 -13.17940094 50.63280853 -13.18701172 49.44262695 C-13.19508347 48.25872879 -13.20315521 47.07483063 -13.21147156 45.85505676 C-13.2253211 43.34576893 -13.23603935 40.83646219 -13.24389648 38.32714844 C-13.26111311 34.48832536 -13.30499365 30.65036238 -13.34912109 26.81176758 C-13.35924735 24.37622705 -13.36776366 21.94067919 -13.37451172 19.50512695 C-13.39201981 18.35602341 -13.40952789 17.20691986 -13.42756653 16.022995 C-13.40594271 8.08258622 -13.40594271 8.08258622 -11.17211914 4.13525391 C-7.49647154 1.05936608 -4.79438938 0.02564789 0 0 Z " fill="#0457FF" transform="translate(113.94873046875,99.725341796875)"/>
<path d="M0 0 C2.5 1.5625 2.5 1.5625 4 4 C3.78571429 10.21428571 3.78571429 10.21428571 1 13 C0.62864085 15.52037964 0.62864085 15.52037964 0.5859375 18.4453125 C0.54726562 19.52167969 0.50859375 20.59804687 0.46875 21.70703125 C0.4378125 22.83496094 0.406875 23.96289062 0.375 25.125 C0.33632812 26.26066406 0.29765625 27.39632812 0.2578125 28.56640625 C0.16332399 31.37743956 0.07776459 34.18846233 0 37 C-2.68359375 37.4921875 -2.68359375 37.4921875 -6 37 C-8.19643871 34.67267925 -9.5766505 31.94210705 -11.0625 29.125 C-11.49224121 28.3522876 -11.92198242 27.5795752 -12.36474609 26.78344727 C-15.40527858 21.27140117 -18.29358902 15.68346306 -21 10 C-21.33 15.28 -21.66 20.56 -22 26 C-21.01 26.33 -20.02 26.66 -19 27 C-17.57958179 29.84083641 -17.68547728 31.85477278 -18 35 C-19.5625 37.375 -19.5625 37.375 -22 39 C-25.46230815 39.42519574 -27.8347167 39.63902633 -30.9375 37.9375 C-32.63902633 34.8347167 -32.42519574 32.46230815 -32 29 C-31.34354492 28.38286133 -30.68708984 27.76572266 -30.01074219 27.12988281 C-27.4580453 24.42593337 -27.46868148 23.02802974 -27.390625 19.359375 C-27.34228516 17.75449219 -27.34228516 17.75449219 -27.29296875 16.1171875 C-27.27169922 14.45042969 -27.27169922 14.45042969 -27.25 12.75 C-27.22035156 11.62335938 -27.19070312 10.49671875 -27.16015625 9.3359375 C-27.08951088 6.55721979 -27.03678723 3.77933852 -27 1 C-24.69 1 -22.38 1 -20 1 C-18.03989199 4.41565147 -16.08222426 7.83269541 -14.125 11.25 C-13.56941406 12.21808594 -13.01382813 13.18617188 -12.44140625 14.18359375 C-11.63896484 15.58544922 -11.63896484 15.58544922 -10.8203125 17.015625 C-10.32805176 17.87446289 -9.83579102 18.73330078 -9.32861328 19.61816406 C-8.15982684 21.71347471 -7.07297609 23.85404781 -6 26 C-5.67 22.04 -5.34 18.08 -5 14 C-6.32 13.34 -7.64 12.68 -9 12 C-11 9 -11 9 -10.8125 6 C-9.12784607 -0.22026067 -6.26355142 -0.76920807 0 0 Z " fill="#F3F6FF" transform="translate(148,116)"/>
<path d="M0 0 C0.77214844 -0.01611328 1.54429687 -0.03222656 2.33984375 -0.04882812 C8.01802683 -0.05374856 8.01802683 -0.05374856 10.25195312 1.64379883 C11.5 3.3125 11.5 3.3125 11.375 6.375 C10.5 9.3125 10.5 9.3125 7.5 11.3125 C4.78715129 11.53378109 2.21080614 11.63705875 -0.5 11.625 C-1.58667969 11.64916992 -1.58667969 11.64916992 -2.6953125 11.67382812 C-7.9550376 11.67868027 -7.9550376 11.67868027 -10.4765625 9.984375 C-12.08207866 7.36162341 -11.88165396 5.30212267 -11.5 2.3125 C-7.65681569 -0.24962287 -4.45306045 -0.01858539 0 0 Z " fill="#0E5DFF" transform="translate(188.5,127.6875)"/>
<path d="M0 0 C2.3431213 0.25561323 4.67843403 0.59270772 7 1 C8.63510979 4.27021959 8.22628299 7.84733751 8.25 11.4375 C8.270625 12.21416016 8.29125 12.99082031 8.3125 13.79101562 C8.35222556 19.55618822 8.35222556 19.55618822 6.63574219 21.71899414 C5 23 5 23 2.5 23.4375 C0 23 0 23 -1.6328125 21.44140625 C-3.53247749 18.04914734 -3.39783092 15.3660365 -3.375 11.5 C-3.38273438 10.1903125 -3.39046875 8.880625 -3.3984375 7.53125 C-2.99356315 3.94295185 -2.46291002 2.55412891 0 0 Z " fill="#095AFF" transform="translate(132,176)"/>
<path d="M0 0 C2.9758564 0.44637846 3.65583245 1.06018381 5.5 3.375 C5.8248229 6.30133247 5.96433068 8.95289521 5.9375 11.875 C5.95748047 12.64714844 5.97746094 13.41929687 5.99804688 14.21484375 C5.99317736 19.83426256 5.99317736 19.83426256 3.63671875 22.41796875 C0.82700748 23.67643175 -0.6202513 23.36017719 -3.5 22.375 C-6.11042212 19.76457788 -5.78846788 17.86378815 -5.82226562 14.30273438 C-5.81904297 13.52220703 -5.81582031 12.74167969 -5.8125 11.9375 C-5.82861328 11.16083984 -5.84472656 10.38417969 -5.86132812 9.58398438 C-5.86627831 3.83682348 -5.86627831 3.83682348 -4.13354492 1.65209961 C-2.5 0.375 -2.5 0.375 0 0 Z " fill="#0C5CFF" transform="translate(114.5,175.625)"/>
<path d="M0 0 C1.15822266 -0.01740234 1.15822266 -0.01740234 2.33984375 -0.03515625 C7.99867434 -0.00573425 7.99867434 -0.00573425 10.25585938 1.70849609 C11.5 3.375 11.5 3.375 11.3125 6.4375 C10.5 9.375 10.5 9.375 8.5 11.375 C5.64434641 11.60052341 2.9174649 11.69928763 0.0625 11.6875 C-1.10249023 11.71166992 -1.10249023 11.71166992 -2.29101562 11.73632812 C-8.03817652 11.74127831 -8.03817652 11.74127831 -10.22290039 10.00854492 C-11.5 8.375 -11.5 8.375 -11.875 5.875 C-10.89083845 -0.686077 -5.50137305 -0.08265836 0 0 Z " fill="#0759FF" transform="translate(82.5,147.625)"/>
<path d="M0 0 C2.375 0.9375 2.375 0.9375 4.375 3.9375 C4.57021269 6.64751148 4.6538975 9.23076791 4.625 11.9375 C4.63273437 12.66195312 4.64046875 13.38640625 4.6484375 14.1328125 C4.63442063 17.93138493 4.52941944 19.70587084 2.375 22.9375 C-0.61264592 23.31890161 -2.67282237 23.52534675 -5.2890625 21.91015625 C-7.37916414 18.82389505 -7.09792356 15.59710186 -7.0625 12 C-7.0924707 10.92588867 -7.0924707 10.92588867 -7.12304688 9.83007812 C-7.11977007 6.29440702 -6.89351862 4.29890242 -4.76171875 1.4296875 C-2.625 -0.0625 -2.625 -0.0625 0 0 Z " fill="#0A5BFF" transform="translate(116.625,70.0625)"/>
<path d="M0 0 C0.71607422 -0.02449219 1.43214844 -0.04898438 2.16992188 -0.07421875 C5.71175693 -0.09391385 7.69154921 0.09996484 10.5703125 2.234375 C12.0625 4.375 12.0625 4.375 12 7 C11.0625 9.375 11.0625 9.375 8.0625 11.375 C5.34965129 11.59628109 2.77330614 11.69955875 0.0625 11.6875 C-1.02417969 11.71166992 -1.02417969 11.71166992 -2.1328125 11.73632812 C-7.3925376 11.74118027 -7.3925376 11.74118027 -9.9140625 10.046875 C-11.51957866 7.42412341 -11.31915396 5.36462267 -10.9375 2.375 C-7.22932221 -0.09711853 -4.2949099 0.00769008 0 0 Z " fill="#0759FF" transform="translate(187.9375,147.625)"/>
<path d="M0 0 C1.16499023 -0.0309375 1.16499023 -0.0309375 2.35351562 -0.0625 C8.09782189 -0.10208178 8.09782189 -0.10208178 10.31665039 1.57910156 C11.5625 3.25 11.5625 3.25 11.4375 6.3125 C10.5625 9.25 10.5625 9.25 7.5625 11.25 C5.03383995 11.47150947 2.65141112 11.57461127 0.125 11.5625 C-1.85306641 11.58763672 -1.85306641 11.58763672 -3.87109375 11.61328125 C-7.49885659 11.2437501 -8.86645294 10.74214025 -11.4375 8.25 C-11.18188677 5.9068787 -10.84479228 3.57156597 -10.4375 1.25 C-7.16728041 -0.38510979 -3.59016249 0.02371701 0 0 Z " fill="#0C5CFF" transform="translate(82.4375,127.75)"/>
<path d="M0 0 C3 0.25 3 0.25 5 2.25 C5.44360072 5.20852109 5.32412652 8.19948451 5.3125 11.1875 C5.32861328 12.01185547 5.34472656 12.83621094 5.36132812 13.68554688 C5.36197266 14.47896484 5.36261719 15.27238281 5.36328125 16.08984375 C5.36775269 17.17833618 5.36775269 17.17833618 5.37231445 18.28881836 C4.89056476 20.82645459 4.06543257 21.73325919 2 23.25 C-1.125 23.0625 -1.125 23.0625 -4 22.25 C-5.70913373 18.83173253 -5.18458479 15.01645237 -5.1875 11.25 C-5.19974609 10.41726562 -5.21199219 9.58453125 -5.22460938 8.7265625 C-5.22654297 7.92992187 -5.22847656 7.13328125 -5.23046875 6.3125 C-5.23457764 5.58160156 -5.23868652 4.85070312 -5.24291992 4.09765625 C-4.78799024 0.63744741 -3.25814118 0.27151176 0 0 Z " fill="#0356FF" transform="translate(155,175.75)"/>
<path d="M0 0 C1.24233398 0.00483398 1.24233398 0.00483398 2.50976562 0.00976562 C3.33412109 -0.00634766 4.15847656 -0.02246094 5.0078125 -0.0390625 C5.80123047 -0.03970703 6.59464844 -0.04035156 7.41210938 -0.04101562 C8.137771 -0.04399658 8.86343262 -0.04697754 9.61108398 -0.05004883 C12.14872022 0.43170086 13.05552482 1.25683305 14.57226562 3.32226562 C14.38476562 6.44726562 14.38476562 6.44726562 13.57226562 9.32226562 C10.15399816 11.03139936 6.338718 10.50685041 2.57226562 10.50976562 C1.73953125 10.52201172 0.90679687 10.53425781 0.04882812 10.546875 C-1.14613281 10.54977539 -1.14613281 10.54977539 -2.36523438 10.55273438 C-3.09613281 10.55684326 -3.82703125 10.56095215 -4.58007812 10.56518555 C-6.42773438 10.32226562 -6.42773438 10.32226562 -8.42773438 8.32226562 C-8.67773438 5.32226562 -8.67773438 5.32226562 -8.42773438 2.32226562 C-5.66436097 -0.44110778 -3.77225995 0.03376311 0 0 Z " fill="#0356FF" transform="translate(79.427734375,107.677734375)"/>
<path d="M0 0 C1.24233398 0.00483398 1.24233398 0.00483398 2.50976562 0.00976562 C3.33412109 -0.00634766 4.15847656 -0.02246094 5.0078125 -0.0390625 C5.80123047 -0.03970703 6.59464844 -0.04035156 7.41210938 -0.04101562 C8.137771 -0.04399658 8.86343262 -0.04697754 9.61108398 -0.05004883 C12.14872022 0.43170086 13.05552482 1.25683305 14.57226562 3.32226562 C14.38476562 6.44726562 14.38476562 6.44726562 13.57226562 9.32226562 C10.15399816 11.03139936 6.338718 10.50685041 2.57226562 10.50976562 C1.73953125 10.52201172 0.90679687 10.53425781 0.04882812 10.546875 C-1.14613281 10.54977539 -1.14613281 10.54977539 -2.36523438 10.55273438 C-3.09613281 10.55684326 -3.82703125 10.56095215 -4.58007812 10.56518555 C-6.42773438 10.32226562 -6.42773438 10.32226562 -8.42773438 8.32226562 C-8.67773438 5.32226562 -8.67773438 5.32226562 -8.42773438 2.32226562 C-5.66436097 -0.44110778 -3.77225995 0.03376311 0 0 Z " fill="#0356FF" transform="translate(185.427734375,107.677734375)"/>
<path d="M0 0 C2.4375 0.75 2.4375 0.75 4.4375 2.75 C4.63646281 5.60277554 4.71574931 8.33667372 4.6875 11.1875 C4.69523438 11.96416016 4.70296875 12.74082031 4.7109375 13.54101562 C4.69746806 17.45052168 4.65118645 19.42947032 2.4375 22.75 C-0.5625 23.0625 -0.5625 23.0625 -3.5625 22.75 C-6.38976984 19.92273016 -5.85221809 17.78224876 -5.88476562 13.91796875 C-5.88154297 13.03753906 -5.87832031 12.15710938 -5.875 11.25 C-5.89111328 10.36957031 -5.90722656 9.48914063 -5.92382812 8.58203125 C-5.92447266 7.74027344 -5.92511719 6.89851563 -5.92578125 6.03125 C-5.92876221 5.25845703 -5.93174316 4.48566406 -5.93481445 3.68945312 C-5.81195068 3.04943359 -5.68908691 2.40941406 -5.5625 1.75 C-2.5625 -0.25 -2.5625 -0.25 0 0 Z " fill="#0457FF" transform="translate(136.5625,70.25)"/>
<path d="M0 0 C2.4375 0.8125 2.4375 0.8125 4.4375 2.8125 C4.69628906 4.66015625 4.69628906 4.66015625 4.703125 6.875 C4.70570313 7.67164062 4.70828125 8.46828125 4.7109375 9.2890625 C4.70320312 10.12179688 4.69546875 10.95453125 4.6875 11.8125 C4.69523438 12.64523438 4.70296875 13.47796875 4.7109375 14.3359375 C4.70835937 15.13257812 4.70578125 15.92921875 4.703125 16.75 C4.70086914 17.48089844 4.69861328 18.21179688 4.69628906 18.96484375 C4.4375 20.8125 4.4375 20.8125 2.4375 22.8125 C-0.5625 23.0625 -0.5625 23.0625 -3.5625 22.8125 C-6.3258734 20.0491266 -5.85100252 18.15702557 -5.88476562 14.38476562 C-5.88154297 13.55654297 -5.87832031 12.72832031 -5.875 11.875 C-5.89111328 11.05064453 -5.90722656 10.22628906 -5.92382812 9.37695312 C-5.92447266 8.58353516 -5.92511719 7.79011719 -5.92578125 6.97265625 C-5.92876221 6.24699463 -5.93174316 5.52133301 -5.93481445 4.77368164 C-5.25435928 1.18935612 -3.60203381 -0.26356345 0 0 Z " fill="#0356FF" transform="translate(156.5625,70.1875)"/>
</svg>
